<svg width="510" height="510" viewBox="0 0 510 510" fill="none" xmlns="http://www.w3.org/2000/svg">
<path fill-rule="evenodd" clip-rule="evenodd" d="M255 510C395.833 510 510 395.833 510 255C510 114.167 395.833 0 255 0C114.167 0 0 114.167 0 255C0 395.833 114.167 510 255 510ZM75.8869 108.43C75.6329 108.148 75.4518 107.807 75.3597 107.439L75.1935 106.774C74.866 105.464 75.9887 104.248 77.3204 104.47V104.47C77.4399 104.49 77.5571 104.521 77.6705 104.564L81.7268 106.085C84.2376 107.027 86.6621 108.184 88.9734 109.543L94.8087 112.976C99.9297 115.988 104.829 119.363 109.468 123.074L112.539 125.532C119.171 130.837 125.419 136.607 131.234 142.797L138 150L147.5 160.5L162.5 178.5L170.5 190.5V190.5C176.821 200.148 182.285 210.331 186.829 220.933L190.5 229.5L207 272.5L213.5 295.5L222.5 328L230.5 359.5L234.5 373.5L236.5 380.5L239.5 389L240.077 391.595C240.42 393.14 242.619 393.149 242.975 391.607V391.607C242.992 391.536 243.013 391.466 243.04 391.398L248.5 377.5L251.5 368L255.5 356.5L260.5 340.5L266 324.5L270.5 310.5L276.5 293.5L281 282.5L285.5 269.5L291.5 254.5L298 240.5L303.5 228.5L309.5 216.5L316.5 204.5L325 191.5L335.5 176.5L345.5 164.5L355.21 152.848C355.4 152.62 355.526 152.346 355.574 152.054V152.054C355.774 150.857 354.67 149.855 353.499 150.167L348.863 151.403C348.621 151.468 348.385 151.551 348.156 151.653L344.35 153.344C341.123 154.778 338.036 156.507 335.127 158.507L331.5 161L319.5 171.5L309.5 182.5L302.5 191.5L294.5 203.5L288.654 215.679C288.552 215.892 288.425 216.093 288.278 216.278L286.691 218.261C285.773 219.409 283.94 219.041 283.536 217.627V217.627C283.512 217.542 283.494 217.456 283.483 217.369L282.5 210V198.5L283.5 190.5L284.033 187.833C285.01 182.951 286.341 178.146 288.015 173.457V173.457C289.67 168.825 291.655 164.318 293.957 159.971L294.677 158.61C297.885 152.551 301.677 146.821 306 141.5V141.5L314.5 132.5L324.5 124.5L327.305 122.747C330.763 120.586 334.391 118.712 338.155 117.144V117.144C342.376 115.385 346.75 114.018 351.221 113.06L386.5 105.5L399.5 102.5L421 97.5L431.354 95.0149C432.643 94.7056 433.989 95.2329 434.724 96.3359V96.3359C435.218 97.0773 435.377 97.9928 435.161 98.8573L433.5 105.5L430.5 115.5L429.5 119.5L428.5 127L427.5 136.5L426.5 146.5L425.5 156.5L424.5 163.5L422.5 173.5L421.118 177.647C420.042 180.875 418.668 183.997 417.015 186.972V186.972C415.342 189.984 413.39 192.832 411.184 195.479L409.308 197.731C406.109 201.57 402.582 205.123 398.767 208.351L397.38 209.524C393.465 212.837 389.317 215.864 384.968 218.582L383.5 219.5L382.814 219.843C375.281 223.61 367.49 226.837 359.5 229.5V229.5L346.5 232.5L334.539 235.063C333.185 235.353 331.873 235.813 330.635 236.433V236.433C327.931 237.785 325.652 239.856 324.05 242.42L318.866 250.714C317.292 253.233 315.94 255.885 314.825 258.639L299.5 296.5L286.5 338.5L280.5 361.5L274.5 388.5L269.5 417.5L265.5 444L262.5 462L260.607 469.192C260.207 470.714 259.492 472.135 258.509 473.363V473.363C256.886 475.392 254.612 476.797 252.072 477.342L250.604 477.656C249.537 477.885 248.45 478 247.36 478H235.334C233.16 478 231.035 477.356 229.226 476.15V476.15C227.138 474.759 225.588 472.696 224.833 470.303L223 464.5L214.5 424L201 368L187 316L180 293.5L170.5 264.5L156 228.5L143.5 203L134.5 186.5L123.5 169.5L106.5 145.5L94 130L87 121L80 113L75.8869 108.43Z" fill="rgb(244,248,244)"/>
</svg>
